<?xml version="1.0" encoding="utf-8"?>
<!-- Generator: Adobe Illustrator 16.0.4, SVG Export Plug-In . SVG Version: 6.00 Build 0)  -->
<!DOCTYPE svg PUBLIC "-//W3C//DTD SVG 1.1//EN" "http://www.w3.org/Graphics/SVG/1.1/DTD/svg11.dtd">
<svg version="1.1" xmlns="http://www.w3.org/2000/svg" xmlns:xlink="http://www.w3.org/1999/xlink" x="0px" y="0px"
	 width="359.691px" height="89.227px" viewBox="0 0 359.691 89.227" enable-background="new 0 0 359.691 89.227"
	 xml:space="preserve">
<g id="Layer_2" display="none">
	<rect x="-289.28" y="-324.48" display="inline" width="1224" height="792"/>
</g>
<g id="original" display="none">
	<path display="inline" fill="none" stroke="#FFFFFF" stroke-width="13" stroke-miterlimit="10" d="M435.274,132.659
		c0-39.101-20.414-69.971-40.676-97.19c-37.824-50.81-33.826-71.688-36.258-87.474c-2.807-18.21-4.398-63.616-4.398-63.616
		s-21.836,0-30.667,0c-8.695,0-30.285,0-30.285,0s-2.621,46.378-4.706,63.616c-1.972,16.306,1.49,36.664-36.252,87.474
		c-20.254,27.267-40.758,58.047-40.758,97.19c0,69.588,50.144,126,112,126C385.132,258.659,435.274,202.247,435.274,132.659z"/>
	<linearGradient id="SVGID_1_" gradientUnits="userSpaceOnUse" x1="324.6729" y1="-16.2222" x2="324.6729" y2="232.6597">
		<stop  offset="0" style="stop-color:#FFD600"/>
		<stop  offset="1" style="stop-color:#C21600"/>
	</linearGradient>
	<path display="inline" fill="url(#SVGID_1_)" d="M410.271,148.883c0-37.415-16.422-59.338-32.463-84.862
		c-46.092-73.34-58.396-80.243-66.62-80.243c-3.733,0-3.122,4.206,4.408,42.037c8.649,43.461-24.424,45.095-53.895,71.603
		c-11.588,10.424-16.791,22.959-19.562,30.835c-2.991,8.5-3.4,19.95-2.866,30.395c1.697,33.167,37.817,74.013,84.462,74.013
		C380.046,232.659,410.271,184.337,410.271,148.883z"/>
	<path display="inline" d="M269.704,188.17c0-23.082,5.248-34.658,17.605-52.354c19.273-27.598,39.336-46.271,44.557-46.271
		c2.369,0,1.982,2.595-2.799,25.934c-5.49,26.812,15.504,27.821,34.209,44.174c7.357,6.432,12.658,12.165,14.418,17.024
		c1.898,5.244,2.158,12.308,1.818,18.751c-1.076,20.462-24.004,45.661-53.611,45.661
		C290.158,241.089,269.704,210.043,269.704,188.17z"/>
</g>
<g id="Layer_3">
	<g>
		<g>
			<linearGradient id="SVGID_2_" gradientUnits="userSpaceOnUse" x1="227.1733" y1="15.3042" x2="227.1733" y2="85.897">
				<stop  offset="0" style="stop-color:#FEE100"/>
				<stop  offset="0.7824" style="stop-color:#E40300"/>
			</linearGradient>
			<path fill="url(#SVGID_2_)" d="M63.594,62.601v8h-4.928V15.308c6.08,1.152,17.983,8.959,18.047,25.214
				C76.777,55.817,65.065,61.833,63.594,62.601z M63.594,23.308v33.726c2.688-2.24,7.872-6.912,7.872-16.063
				C71.465,28.683,64.49,24.204,63.594,23.308z"/>
			<linearGradient id="SVGID_3_" gradientUnits="userSpaceOnUse" x1="227.1733" y1="15.3042" x2="227.1733" y2="85.897">
				<stop  offset="0" style="stop-color:#FEE100"/>
				<stop  offset="0.7824" style="stop-color:#E40300"/>
			</linearGradient>
			<path fill="url(#SVGID_3_)" d="M92.84,36.363c-4.288-2.048-5.567,1.919-5.567,5.184V70.6h-4.928v-32.83
				c0,0-0.064-3.456-0.896-6.271l4.8-0.192c0,0,0.128,0.704,0.704,3.264c0.896-2.112,3.328-4.032,6.144-3.392L92.84,36.363z"/>
			<linearGradient id="SVGID_4_" gradientUnits="userSpaceOnUse" x1="227.1733" y1="15.3042" x2="227.1733" y2="85.897">
				<stop  offset="0" style="stop-color:#FEE100"/>
				<stop  offset="0.7824" style="stop-color:#E40300"/>
			</linearGradient>
			<path fill="url(#SVGID_4_)" d="M106.344,70.792c-1.855,0.064-9.215-0.512-9.215-11.071v-7.807c0-5.056,0.768-12.287,7.68-12.223
				c2.368,0,3.52,1.28,4.352,2.112c-0.192-2.624,0.896-7.295-4.352-6.912c0,0-1.856,0-3.392,0.256l1.92-4.288
				c0.959,0,3.2-0.128,4.543-0.128c1.6,0,6.144,1.088,6.144,6.784V70.6C107.497,70.856,106.344,70.792,106.344,70.792z
				 M109.096,46.474c-1.216-2.304-3.647-2.304-3.647-2.304c-3.84,0-3.328,7.231-3.328,8.768v5.823c0,6.08,2.24,7.872,5.12,7.744
				c0,0,0.832,0,1.856-0.064V46.474z"/>
			<linearGradient id="SVGID_5_" gradientUnits="userSpaceOnUse" x1="227.1733" y1="15.3042" x2="227.1733" y2="85.897">
				<stop  offset="0" style="stop-color:#FEE100"/>
				<stop  offset="0.7824" style="stop-color:#E40300"/>
			</linearGradient>
			<path fill="url(#SVGID_5_)" d="M123.24,25.292c-1.855,0-3.456-1.6-3.456-3.456c0-1.855,1.6-3.392,3.456-3.392
				c1.856,0,3.456,1.536,3.456,3.392C126.696,23.691,125.096,25.292,123.24,25.292z M120.937,70.6V31.435h4.864V70.6H120.937z"/>
			<linearGradient id="SVGID_6_" gradientUnits="userSpaceOnUse" x1="227.1733" y1="15.3042" x2="227.1733" y2="85.897">
				<stop  offset="0" style="stop-color:#FEE100"/>
				<stop  offset="0.7824" style="stop-color:#E40300"/>
			</linearGradient>
			<path fill="url(#SVGID_6_)" d="M144.807,36.363c-4.288-2.048-5.567,1.919-5.567,5.184V70.6h-4.928v-32.83
				c0,0-0.064-3.456-0.896-6.271l4.8-0.192c0,0,0.128,0.704,0.704,3.264c0.896-2.112,3.328-4.032,6.144-3.392L144.807,36.363z"/>
			<linearGradient id="SVGID_7_" gradientUnits="userSpaceOnUse" x1="227.1733" y1="15.3042" x2="227.1733" y2="85.897">
				<stop  offset="0" style="stop-color:#FEE100"/>
				<stop  offset="0.7824" style="stop-color:#E40300"/>
			</linearGradient>
			<path fill="url(#SVGID_7_)" d="M153.191,25.292c-1.855,0-3.456-1.6-3.456-3.456c0-1.855,1.6-3.392,3.456-3.392
				c1.856,0,3.456,1.536,3.456,3.392C156.647,23.691,155.047,25.292,153.191,25.292z M150.888,70.6V31.435h4.864V70.6H150.888z"/>
			<linearGradient id="SVGID_8_" gradientUnits="userSpaceOnUse" x1="227.1733" y1="15.3042" x2="227.1733" y2="85.897">
				<stop  offset="0" style="stop-color:#FEE100"/>
				<stop  offset="0.7824" style="stop-color:#E40300"/>
			</linearGradient>
			<path fill="url(#SVGID_8_)" d="M166.887,54.857c0,7.423,0.32,12.159,3.84,12.159c2.944,0,3.136-3.2,3.52-8.704l4.479,0.512
				c-0.128,7.295-1.984,12.479-8.127,12.479c-8.831,0-8.575-8.64-8.639-19.903c-0.064-12.863,1.152-20.542,8.831-20.606
				c5.696-0.064,7.936,5.248,8,13.055L166.887,54.857z M170.599,34.827c-4.032,0-3.52,8.832-3.647,14.975l7.167-7.295
				C174.183,38.858,173.798,34.827,170.599,34.827z"/>
			<linearGradient id="SVGID_9_" gradientUnits="userSpaceOnUse" x1="227.1733" y1="15.3042" x2="227.1733" y2="85.897">
				<stop  offset="0" style="stop-color:#FEE100"/>
				<stop  offset="0.7824" style="stop-color:#E40300"/>
			</linearGradient>
			<path fill="url(#SVGID_9_)" d="M202.278,55.881V70.6h-4.928V16.204h14.911v4.671h-9.983v30.334h9.983v4.672H202.278z"/>
			<linearGradient id="SVGID_10_" gradientUnits="userSpaceOnUse" x1="227.1733" y1="15.3042" x2="227.1733" y2="85.897">
				<stop  offset="0" style="stop-color:#FEE100"/>
				<stop  offset="0.7824" style="stop-color:#E40300"/>
			</linearGradient>
			<path fill="url(#SVGID_10_)" d="M220.902,25.292c-1.855,0-3.456-1.6-3.456-3.456c0-1.855,1.6-3.392,3.456-3.392
				c1.856,0,3.456,1.536,3.456,3.392C224.358,23.691,222.758,25.292,220.902,25.292z M218.598,70.6V31.435h4.864V70.6H218.598z"/>
			<linearGradient id="SVGID_11_" gradientUnits="userSpaceOnUse" x1="227.1733" y1="15.3042" x2="227.1733" y2="85.897">
				<stop  offset="0" style="stop-color:#FEE100"/>
				<stop  offset="0.7824" style="stop-color:#E40300"/>
			</linearGradient>
			<path fill="url(#SVGID_11_)" d="M242.469,36.363c-4.288-2.048-5.567,1.919-5.567,5.184V70.6h-4.928v-32.83
				c0,0-0.064-3.456-0.896-6.271l4.8-0.192c0,0,0.128,0.704,0.704,3.264c0.896-2.112,3.328-4.032,6.144-3.392L242.469,36.363z"/>
			<linearGradient id="SVGID_12_" gradientUnits="userSpaceOnUse" x1="227.1733" y1="15.3042" x2="227.1733" y2="85.897">
				<stop  offset="0" style="stop-color:#FEE100"/>
				<stop  offset="0.7824" style="stop-color:#E40300"/>
			</linearGradient>
			<path fill="url(#SVGID_12_)" d="M250.917,54.857c0,7.423,0.32,12.159,3.84,12.159c2.944,0,3.136-3.2,3.52-8.704l4.479,0.512
				c-0.128,7.295-1.984,12.479-8.127,12.479c-8.831,0-8.575-8.64-8.639-19.903c-0.064-12.863,1.152-20.542,8.831-20.606
				c5.696-0.064,7.936,5.248,8,13.055L250.917,54.857z M254.629,34.827c-4.032,0-3.52,8.832-3.647,14.975l7.167-7.295
				C258.213,38.858,257.829,34.827,254.629,34.827z"/>
			<linearGradient id="SVGID_13_" gradientUnits="userSpaceOnUse" x1="227.1733" y1="15.3042" x2="227.1733" y2="85.897">
				<stop  offset="0" style="stop-color:#FEE100"/>
				<stop  offset="0.7824" style="stop-color:#E40300"/>
			</linearGradient>
			<path fill="url(#SVGID_13_)" d="M279.781,43.978c0-17.407,13.119-27.262,20.542-28.67v5.312
				c-7.808,2.432-15.039,11.647-15.039,23.23c0,8.575,5.375,16.255,10.111,19.966V40.522h-4.736v-4.672h9.664v36.157
				C293.86,70.856,279.781,60.553,279.781,43.978z"/>
			<linearGradient id="SVGID_14_" gradientUnits="userSpaceOnUse" x1="227.1733" y1="15.3042" x2="227.1733" y2="85.897">
				<stop  offset="0" style="stop-color:#FEE100"/>
				<stop  offset="0.7824" style="stop-color:#E40300"/>
			</linearGradient>
			<path fill="url(#SVGID_14_)" d="M307.684,70.6V16.204h4.864V70.6H307.684z"/>
			<linearGradient id="SVGID_15_" gradientUnits="userSpaceOnUse" x1="227.1733" y1="15.3042" x2="227.1733" y2="85.897">
				<stop  offset="0" style="stop-color:#FEE100"/>
				<stop  offset="0.7824" style="stop-color:#E40300"/>
			</linearGradient>
			<path fill="url(#SVGID_15_)" d="M328.739,70.792c-1.855,0.064-9.215-0.512-9.215-11.071v-7.807
				c0-5.056,0.768-12.287,7.679-12.223c2.368,0,3.521,1.28,4.353,2.112c-0.192-2.624,0.896-7.295-4.353-6.912
				c0,0-1.855,0-3.392,0.256l1.92-4.288c0.96,0,3.2-0.128,4.544-0.128c1.6,0,6.144,1.088,6.144,6.784V70.6
				C329.892,70.856,328.739,70.792,328.739,70.792z M331.491,46.474c-1.216-2.304-3.647-2.304-3.647-2.304
				c-3.84,0-3.328,7.231-3.328,8.768v5.823c0,6.08,2.24,7.872,5.12,7.744c0,0,0.832,0,1.855-0.064V46.474z"/>
			<linearGradient id="SVGID_16_" gradientUnits="userSpaceOnUse" x1="227.1733" y1="15.3042" x2="227.1733" y2="85.897">
				<stop  offset="0" style="stop-color:#FEE100"/>
				<stop  offset="0.7824" style="stop-color:#E40300"/>
			</linearGradient>
			<path fill="url(#SVGID_16_)" d="M347.746,70.984c-1.151,0.448-2.624,0.768-3.84,0.768c-1.151,0-2.367-0.192-3.455-0.512
				l0.64-4.288c0.832,0.128,1.728,0.256,2.56,0.256c3.456,0,5.888-1.792,5.888-5.44c0-4.991-8.512-13.311-8.512-21.118
				c0-5.504,4.16-9.983,9.664-9.983c0.832,0,1.664,0.064,2.495,0.192l-0.512,4.16c-0.319,0-0.832-0.064-1.151-0.064
				c-3.456,0-5.504,1.792-5.504,5.375c0,5.696,8.447,12.735,8.447,20.927c0,0.192,0,0.32,0,0.512
				C354.146,66.312,352.034,69.448,347.746,70.984z"/>
			<linearGradient id="SVGID_17_" gradientUnits="userSpaceOnUse" x1="227.1733" y1="15.3042" x2="227.1733" y2="85.897">
				<stop  offset="0" style="stop-color:#FEE100"/>
				<stop  offset="0.7824" style="stop-color:#E40300"/>
			</linearGradient>
			<path fill="url(#SVGID_17_)" d="M364.834,70.984c-1.151,0.448-2.624,0.768-3.84,0.768c-1.151,0-2.367-0.192-3.455-0.512
				l0.64-4.288c0.832,0.128,1.728,0.256,2.56,0.256c3.456,0,5.888-1.792,5.888-5.44c0-4.991-8.512-13.311-8.512-21.118
				c0-5.504,4.16-9.983,9.664-9.983c0.832,0,1.664,0.064,2.495,0.192l-0.512,4.16c-0.319,0-0.832-0.064-1.151-0.064
				c-3.456,0-5.504,1.792-5.504,5.375c0,5.696,8.447,12.735,8.447,20.927c0,0.192,0,0.32,0,0.512
				C371.233,66.312,369.122,69.448,364.834,70.984z"/>
		</g>
	</g>
</g>
<g id="Layer_1">
	<path fill="none" stroke="#FFFFFF" stroke-width="4" stroke-miterlimit="10" d="M53.007,58.536c0-8.904-4.648-15.934-9.263-22.131
		c-8.612-11.57-7.702-16.324-8.256-19.919C34.849,12.339,34.487,2,34.487,2s-4.972,0-6.983,0c-1.98,0-6.896,0-6.896,0
		s-0.597,10.561-1.071,14.486c-0.449,3.713,0.339,8.349-8.255,19.919C6.669,42.613,2,49.623,2,58.536
		c0,15.846,11.418,28.69,25.503,28.69S53.007,74.382,53.007,58.536z"/>
	<linearGradient id="SVGID_18_" gradientUnits="userSpaceOnUse" x1="28.5996" y1="24.6338" x2="28.5996" y2="78.9204">
		<stop  offset="0" style="stop-color:#FEE100"/>
		<stop  offset="0.9488" style="stop-color:#E40300"/>
	</linearGradient>
	<path fill="url(#SVGID_18_)" d="M40.467,42.906c-10.294-16.7-13.042-18.272-14.879-18.272c-0.834,0-0.697,0.958,0.984,9.572
		c1.932,9.896-5.455,10.269-12.038,16.305c-2.588,2.374-3.75,5.228-4.369,7.021c-0.668,1.936-0.76,4.543-0.641,6.921
		c0.261,5.193,4.156,11.213,9.952,14.467c-2.057-2.365-3.155-5.305-3.155-7.744c0-5.256,1.172-7.892,3.932-11.921
		c4.305-6.284,8.786-10.536,9.952-10.536c0.529,0,0.442,0.591-0.625,5.905c-1.227,6.106,3.463,6.336,7.641,10.06
		c1.643,1.464,2.827,2.77,3.22,3.876c0.424,1.194,0.482,2.802,0.406,4.27c-0.097,1.874-0.985,3.922-2.44,5.703
		c6.106-3.788,9.31-10.741,9.31-16.302C47.718,53.71,44.05,48.718,40.467,42.906z"/>
</g>
</svg>
